<svg version="1" xmlns="http://www.w3.org/2000/svg" width="666.667" height="666.667" viewBox="0 0 500.000000 500.000000"><path d="M0 250v250h500V0H0v250zM300 51c37.1 4.6 68.7 13 93.8 25l10.2 4.9V171H298v-3.3c0-8.9-4.1-15.2-12.1-18.6-13.5-5.9-38.3-2.5-43.2 5.9-2.7 4.5-3.2 11.8-1 16 2.5 4.9 8 7.6 34.3 16.5 71.5 24.4 98.9 40.5 118.8 70 13.8 20.4 19.1 42.3 17.9 73.5-1.3 33.3-10.3 57.7-28.5 77.1-21.1 22.5-49.1 34.9-93.7 41.6-16.9 2.5-71.3 2.5-93 0-37.7-4.4-74.5-12.5-98.7-21.9l-7.8-2.9V325H201.7l.5 6.5c.8 8.8 4.5 16.4 9.5 19.2 8.2 4.6 27.6 5.5 38.6 1.7 12.3-4.2 16.5-18.4 8.2-28.1-4.6-5.4-12.5-9.3-41-20.6-43.6-17.2-62.6-26.2-80.5-38.1-13.6-9-28.7-24.1-35.4-35.4C92 214.1 87 193.1 87 169c0-47.9 18.9-81.4 56.5-99.9 18.2-9 43.8-15.6 69.5-18 6.3-.6 13.3-1.3 15.5-1.5 7.7-.7 63.1.3 71.5 1.4z"/></svg>